# xmcd
#
# Track frame offsets: 
#        150
#        22132
#        46027
#        70528
#        90258
#        113991
#        120709
#        143326
#        165588
#        185523
#        211067
#
# Disc length: 3140 seconds
#
# Revision: 3
# Processed by: cddbd v1.5.2PL0 Copyright (c) Steve Scherf et al.
# Submitted via: ExactAudioCopy v0.95a3
#
DISCID=850c420b
DTITLE=Tolkien, J.R.R. - Der Hobbit (4v4)
DYEAR=1980
DGENRE=Speech
TTITLE0=Folge 12 - Erkundung in der Tiefe 5
TTITLE1=Folge 13 - Nicht zu Hause
TTITLE2=Folge 14 - Die Wolken sammeln sich 1
TTITLE3=Folge 14 - Die Wolken sammeln sich 2
TTITLE4=Folge 14 - Die Wolken sammeln sich 3
TTITLE5=Folge 15 - Ein Dieb in der Nacht  1
TTITLE6=Folge 15 - Ein Dieb in der Nacht  2
TTITLE7=Folge 16 - Die Wolken bersten 1
TTITLE8=Folge 16 - Die Wolken bersten 2
TTITLE9=Folge 17 - Der Weg zurück
TTITLE10=Folge 18 - Das letzte Kapitel
EXTD=WDR Hörspiel YEAR: 1980
EXTT0=
EXTT1=
EXTT2=
EXTT3=
EXTT4=
EXTT5=
EXTT6=
EXTT7=
EXTT8=
EXTT9=
EXTT10=
PLAYORDER=
